<svg xmlns="http://www.w3.org/2000/svg" width="21" height="21" viewBox="0 0 21 21" fill="none" aria-hidden="true">
  <g clip-path="url(#clip0_20490_34196)">
    <path
      fill="url(#paint0_linear_20490_34196)"
      fill-rule="evenodd"
      clip-rule="evenodd"
      d="M5.65949 0.785319C5.45133 0.836328 5.19415 0.995382 5.044 1.16594C4.91686 1.31038 4.83862 1.47979 4.76774 1.76402C4.62131 2.35137 4.42802 2.80096 4.16397 3.16842C3.60674 3.94389 2.83562 4.44436 1.87957 4.65106C1.57289 4.71738 1.45928 4.76203 1.29027 4.88261C0.983037 5.10185 0.809661 5.45593 0.81216 5.85902C0.813756 6.11674 0.863484 6.28379 1.00578 6.50944C1.18772 6.79798 1.4183 6.93811 1.88667 7.04477C2.29835 7.13851 2.47425 7.19947 2.80349 7.3625C3.14177 7.52999 3.40963 7.71893 3.68893 7.987C4.24047 8.51638 4.54273 9.04157 4.73477 9.80417C4.8316 10.1887 4.86732 10.2802 4.98478 10.4448C5.10147 10.6083 5.25143 10.7312 5.44867 10.8249C5.65054 10.9208 5.79309 10.9482 6.02911 10.9365C6.26279 10.9249 6.43411 10.8713 6.62643 10.7499C6.90741 10.5724 7.07184 10.3208 7.17188 9.91517C7.30616 9.37081 7.46059 9.00472 7.72215 8.61076C7.92074 8.31168 8.37067 7.85161 8.67299 7.6385C9.05829 7.36689 9.54974 7.15745 10.0614 7.04683C10.3825 6.9774 10.5079 6.92675 10.6802 6.79695C10.8594 6.6619 11.0164 6.43848 11.0885 6.21602C11.1289 6.09162 11.1395 6.0144 11.1393 5.84852C11.1389 5.58271 11.0852 5.39948 10.9448 5.18436C10.7509 4.88737 10.5234 4.74697 10.08 4.65073C9.27119 4.47517 8.66652 4.14112 8.11245 3.56381C7.73723 3.17283 7.45511 2.70629 7.29074 2.20502C7.26613 2.12995 7.21672 1.9504 7.18094 1.80602C7.09179 1.44629 7.02024 1.30654 6.82583 1.11237C6.65694 0.943722 6.48676 0.842544 6.27882 0.787209C6.14018 0.750312 5.80651 0.749304 5.65949 0.785319ZM5.93169 3.07652C5.6754 3.69919 5.15616 4.42674 4.64157 4.88412C4.24885 5.2332 3.92575 5.45358 3.46719 5.68514C3.27781 5.78078 3.13434 5.85902 3.14833 5.85902C3.19566 5.85902 3.70508 6.12301 3.91649 6.2571C4.49031 6.62107 5.01168 7.11583 5.3977 7.66276C5.57 7.90688 5.79857 8.30449 5.88185 8.50502C5.91785 8.59165 5.9542 8.66994 5.96266 8.67901C5.97113 8.68808 6.00498 8.63214 6.03788 8.55471C6.50547 7.45452 7.49906 6.45082 8.63376 5.93242L8.81503 5.84962L8.49705 5.69157C7.43176 5.16208 6.61265 4.33468 6.1 3.27019L5.96625 2.99252L5.93169 3.07652ZM15.96 5.53579C15.5362 5.61225 15.1623 5.78162 14.8861 6.02217C14.6404 6.2361 6.00067 14.8353 5.94868 14.9177C5.92049 14.9623 5.884 15.0369 5.8676 15.0834C5.84897 15.1362 5.76682 15.9861 5.64888 17.3461C5.44541 19.6924 5.4477 19.6356 5.54846 19.8437C5.60783 19.9664 5.73544 20.0918 5.87988 20.1693C5.97304 20.2193 6.02703 20.2326 6.16323 20.2393C6.31618 20.2468 9.96963 19.9445 10.4359 19.8857C10.7708 19.8435 10.6311 19.9673 12.7772 17.8102C17.5576 13.0052 19.6615 10.8794 19.7511 10.7635C20.0458 10.3821 20.1865 9.96108 20.1865 9.46052C20.1865 9.03002 20.1018 8.72023 19.8816 8.34614C19.7843 8.1807 19.6774 8.06278 18.9605 7.32925C17.8907 6.23476 17.6651 6.01783 17.451 5.8778C17.0732 5.63075 16.7842 5.54199 16.3275 5.5327C16.1542 5.5292 15.9889 5.53058 15.96 5.53579ZM16.1175 7.04277C16.0597 7.05728 15.9747 7.09361 15.9285 7.1235C15.8823 7.15336 13.9261 9.08383 11.5815 11.4134C7.54442 15.4245 7.31773 15.6537 7.30425 15.7363C7.27703 15.9032 7.0475 18.6465 7.05974 18.6588C7.06651 18.6656 7.74176 18.6132 8.56028 18.5425L10.0485 18.4139L10.9117 17.5492C11.3864 17.0736 13.3052 15.1442 15.1755 13.2615C18.9634 9.44872 18.6796 9.75748 18.6794 9.45002C18.6792 9.17965 18.6952 9.19973 17.6018 8.10189C16.5598 7.05562 16.5568 7.05315 16.3275 7.0279C16.2697 7.02156 16.1752 7.02824 16.1175 7.04277Z"
    />
  </g>
  <defs>
    <linearGradient
      id="paint0_linear_20490_34196"
      x1="20.1865"
      y1="10.4992"
      x2="0.812134"
      y2="10.4992"
      gradientUnits="userSpaceOnUse"
    >
      <stop stop-color="#FE6E03" />
      <stop offset="0.331731" stop-color="#FE4F57" />
      <stop offset="0.668269" stop-color="#C864E0" />
      <stop offset="1" stop-color="#6A7FFD" />
    </linearGradient>
    <clipPath id="clip0_20490_34196">
      <rect width="21" height="21" fill="white" />
    </clipPath>
  </defs>
</svg>
