<svg xmlns="http://www.w3.org/2000/svg" width="16" height="16" viewBox="0 0 16 16" fill="none" aria-hidden="true">
  <path
    fill="#000"
    d="M6.4654 2.22614C6.83469 0.591288 9.16447 0.591284 9.53376 2.22614C9.68165 2.8793 10.4313 3.18923 10.9976 2.83161C12.4147 1.93709 14.0614 3.58448 13.1666 5.00153C12.8091 5.56788 13.1198 6.3176 13.773 6.4654C15.4079 6.83469 15.4079 9.16447 13.773 9.53376C13.1198 9.68158 12.809 10.4313 13.1666 10.9976C14.0615 12.4148 12.4148 14.0615 10.9976 13.1666C10.4313 12.809 9.68158 13.1198 9.53376 13.773C9.16447 15.4079 6.83469 15.4079 6.4654 13.773C6.3176 13.1198 5.56788 12.8091 5.00153 13.1666C3.58448 14.0614 1.93709 12.4147 2.83161 10.9976C3.18924 10.4313 2.8793 9.68165 2.22614 9.53376C0.591281 9.16447 0.591291 6.83469 2.22614 6.4654C2.87932 6.31752 3.18924 5.56787 2.83161 5.00153C1.93701 3.58449 3.58449 1.93701 5.00153 2.83161C5.56787 3.18924 6.31752 2.87932 6.4654 2.22614ZM10.859 6.14411C10.6639 5.94861 10.3465 5.94909 10.1509 6.14411L8.52497 7.76813C8.17126 8.12179 7.81751 8.47577 7.25153 9.04059L5.84431 7.64313C5.64833 7.44859 5.33182 7.45009 5.13727 7.64606C4.94274 7.84204 4.94326 8.15855 5.13923 8.35309L6.89997 10.1002C7.09511 10.2939 7.41019 10.2941 7.60505 10.1002C8.38723 9.31991 8.81012 8.89699 9.232 8.47516C9.65384 8.05339 10.076 7.63212 10.858 6.85212C11.0535 6.6571 11.054 6.33961 10.859 6.14411Z"
  />
</svg>
