<svg xmlns="http://www.w3.org/2000/svg" width="16" height="16" viewBox="0 0 16 16" fill="none" aria-hidden="true">
  <path
    fill="#00AD86"
    d="M12.4782 7.68376C12.6735 7.87902 12.9901 7.87902 13.1854 7.68376C13.3806 7.4885 13.3806 7.17192 13.1854 6.97665L8.35356 2.14486C8.25979 2.05109 8.13261 1.99841 8.00001 1.99841C7.8674 1.99841 7.74022 2.05109 7.64645 2.14486L2.81466 6.97665C2.6194 7.17192 2.6194 7.4885 2.81466 7.68376C3.00992 7.87902 3.3265 7.87902 3.52177 7.68376L7.49847 3.70706L7.49847 13.4984C7.49847 13.7746 7.72232 13.9984 7.99847 13.9984C8.27461 13.9984 8.49847 13.7746 8.49847 13.4984L8.49847 3.70398L12.4782 7.68376Z"
  />
</svg>
