<svg xmlns="http://www.w3.org/2000/svg" width="16" height="16" viewBox="0 0 16 16" fill="none" aria-hidden="true">
  <path
    fill="#BF292C"
    d="M8.49847 12.2928L12.4782 8.31307C12.6735 8.1178 12.9901 8.1178 13.1854 8.31307C13.3806 8.50833 13.3806 8.82491 13.1854 9.02017L8.35356 13.852C8.25979 13.9457 8.13261 13.9984 8.00001 13.9984C7.8674 13.9984 7.74022 13.9457 7.64645 13.852L2.81466 9.02017C2.6194 8.82491 2.6194 8.50833 2.81466 8.31307C3.00992 8.1178 3.3265 8.1178 3.52177 8.31307L7.49847 12.2898L7.49847 2.49841C7.49847 2.22227 7.72232 1.99841 7.99847 1.99841C8.27461 1.99841 8.49847 2.22227 8.49847 2.49841L8.49847 12.2928Z"
  />
</svg>
