<svg preserveAspectRatio="none" width="100%" height="100%" overflow="visible" style="display: block;" viewBox="0 0 14 16" fill="none" xmlns="http://www.w3.org/2000/svg">
<g id="Shape">
<path d="M8.25 6C8.66421 6 9 5.66421 9 5.25C9 4.83579 8.66421 4.5 8.25 4.5C7.83579 4.5 7.5 4.83579 7.5 5.25C7.5 5.66421 7.83579 6 8.25 6Z" fill="var(--fill-0, #008768)"/>
<path d="M11.5 5.25C11.5 5.66421 11.1642 6 10.75 6C10.3358 6 10 5.66421 10 5.25C10 4.83579 10.3358 4.5 10.75 4.5C11.1642 4.5 11.5 4.83579 11.5 5.25Z" fill="var(--fill-0, #008768)"/>
<path d="M9 7.75C9 8.16421 8.66421 8.5 8.25 8.5C7.83579 8.5 7.5 8.16421 7.5 7.75C7.5 7.33579 7.83579 7 8.25 7C8.66421 7 9 7.33579 9 7.75Z" fill="var(--fill-0, #008768)"/>
<path d="M10.75 8.5C11.1642 8.5 11.5 8.16421 11.5 7.75C11.5 7.33579 11.1642 7 10.75 7C10.3358 7 10 7.33579 10 7.75C10 8.16421 10.3358 8.5 10.75 8.5Z" fill="var(--fill-0, #008768)"/>
<path d="M8.25 11C8.66421 11 9 10.6642 9 10.25C9 9.83579 8.66421 9.5 8.25 9.5C7.83579 9.5 7.5 9.83579 7.5 10.25C7.5 10.6642 7.83579 11 8.25 11Z" fill="var(--fill-0, #008768)"/>
<path d="M11.5 10.25C11.5 10.6642 11.1642 11 10.75 11C10.3358 11 10 10.6642 10 10.25C10 9.83579 10.3358 9.5 10.75 9.5C11.1642 9.5 11.5 9.83579 11.5 10.25Z" fill="var(--fill-0, #008768)"/>
<path d="M3.5 2.75C3.5 3.16421 3.16421 3.5 2.75 3.5C2.33579 3.5 2 3.16421 2 2.75C2 2.33579 2.33579 2 2.75 2C3.16421 2 3.5 2.33579 3.5 2.75Z" fill="var(--fill-0, #008768)"/>
<path d="M2.75 6C3.16421 6 3.5 5.66421 3.5 5.25C3.5 4.83579 3.16421 4.5 2.75 4.5C2.33579 4.5 2 4.83579 2 5.25C2 5.66421 2.33579 6 2.75 6Z" fill="var(--fill-0, #008768)"/>
<path d="M3.5 7.75C3.5 8.16421 3.16421 8.5 2.75 8.5C2.33579 8.5 2 8.16421 2 7.75C2 7.33579 2.33579 7 2.75 7C3.16421 7 3.5 7.33579 3.5 7.75Z" fill="var(--fill-0, #008768)"/>
<path d="M2.75 11C3.16421 11 3.5 10.6642 3.5 10.25C3.5 9.83579 3.16421 9.5 2.75 9.5C2.33579 9.5 2 9.83579 2 10.25C2 10.6642 2.33579 11 2.75 11Z" fill="var(--fill-0, #008768)"/>
<path d="M3.5 12.75C3.5 13.1642 3.16421 13.5 2.75 13.5C2.33579 13.5 2 13.1642 2 12.75C2 12.3358 2.33579 12 2.75 12C3.16421 12 3.5 12.3358 3.5 12.75Z" fill="var(--fill-0, #008768)"/>
<path fill-rule="evenodd" clip-rule="evenodd" d="M1.76087 0C0.788369 0 0 0.788368 0 1.76087V15.3319C0 15.7009 0.299126 16 0.668116 16H13.3319C13.7009 16 14 15.7009 14 15.3319V4.26087C14 3.28837 13.2116 2.5 12.2391 2.5H9V1.76087C9 0.788369 8.21163 0 7.23913 0H1.76087ZM11.5 15H13V4.26087C13 3.84065 12.6593 3.5 12.2391 3.5H6.76087C6.34065 3.5 6 3.84065 6 4.26087V15H7.5V12.5588C7.5 12.2502 7.7502 12 8.05884 12H10.9412C11.2498 12 11.5 12.2502 11.5 12.5588V15ZM8.5 15H10.5V13H8.5V15ZM8 2.5V1.76087C8 1.34065 7.65935 1 7.23913 1H1.76087C1.34065 1 1 1.34065 1 1.76087V15H5V4.26087C5 3.28837 5.78837 2.5 6.76087 2.5H8Z" fill="var(--fill-0, #008768)"/>
</g>
</svg>
