<svg width="48" height="40" viewBox="0 0 48 40" fill="none" xmlns="http://www.w3.org/2000/svg" aria-hidden="true">
  <path d="M20 0.75H28C38.6315 0.75 47.25 9.36852 47.25 20C47.25 30.6315 38.6315 39.25 28 39.25H20C9.36852 39.25 0.75 30.6315 0.75 20C0.75 9.36852 9.36852 0.75 20 0.75Z" fill="white"/>
  <path d="M20 0.75H28C38.6315 0.75 47.25 9.36852 47.25 20C47.25 30.6315 38.6315 39.25 28 39.25H20C9.36852 39.25 0.75 30.6315 0.75 20C0.75 9.36852 9.36852 0.75 20 0.75Z" stroke="#D9D9D9" stroke-width="1.5"/>
  <path fill-rule="evenodd" clip-rule="evenodd" d="M23.121 14.0002C20.2906 14.0002 17.9961 16.2947 17.9961 19.1251C17.9961 21.9556 20.2906 24.25 23.121 24.25C24.2656 24.25 25.3225 23.8748 26.1755 23.2407L28.7151 25.7803C29.008 26.0732 29.4829 26.0732 29.7758 25.7803C30.0687 25.4874 30.0687 25.0125 29.7758 24.7197L27.2362 22.1801C27.8706 21.327 28.2459 20.2699 28.2459 19.1251C28.2459 16.2947 25.9514 14.0002 23.121 14.0002ZM19.4961 19.1251C19.4961 17.1232 21.119 15.5002 23.121 15.5002C25.123 15.5002 26.7459 17.1232 26.7459 19.1251C26.7459 21.1271 25.123 22.75 23.121 22.75C21.119 22.75 19.4961 21.1271 19.4961 19.1251Z" fill="#0D0D0D"/>
</svg>
