<svg xmlns="http://www.w3.org/2000/svg" width="16" height="16" fill="none" viewBox="0 0 12 12" aria-hidden="true">
  <path fill="#00C295" fill-rule="evenodd" d="M5.99997 0C5.75752 0.000543662 5.53795 0.143322 5.43912 0.364713L4.06997 3.26676C3.9825 3.45712 3.8059 3.59135 3.59908 3.62468L0.537554 4.09004C0.297499 4.13617 0.102345 4.31073 0.029836 4.54418C-0.0426727 4.77762 0.0192441 5.03203 0.19092 5.20604L2.40624 7.46497C2.55467 7.61855 2.62142 7.83345 2.58611 8.04409L2.06315 11.2337C2.02815 11.4196 2.07625 11.6115 2.19479 11.7589C2.31332 11.9063 2.49042 11.9944 2.67947 12C2.78147 11.9996 2.88168 11.9733 2.97068 11.9234L5.70896 10.4175C5.89005 10.3173 6.10996 10.3173 6.29105 10.4175L9.02934 11.9234C9.1183 11.9733 9.21849 11.9996 9.32045 12C9.50949 11.9943 9.68657 11.9062 9.80511 11.7588C9.92364 11.6115 9.97176 11.4196 9.93681 11.2337L9.41384 8.04406C9.37855 7.83342 9.44529 7.61853 9.59372 7.46495L11.809 5.20602C11.9807 5.03202 12.0427 4.7776 11.9702 4.54414C11.8977 4.31069 11.7025 4.13613 11.4624 4.09002L8.4009 3.62468C8.19408 3.59135 8.01749 3.45712 7.93001 3.26676L6.56083 0.364713C6.462 0.143315 6.24242 0.000535331 5.99997 0Z" clip-rule="evenodd"/>
</svg>
