<svg xmlns="http://www.w3.org/2000/svg" width="24" height="24" viewBox="0 0 24 24" fill="none" aria-hidden="true">
  <g transform="translate(0 24) scale(1 -1)">
    <path
      fill="#808080"
      fill-rule="evenodd"
      clip-rule="evenodd"
      d="M7.57094 7.37949L5.92932 10.002H3.4693C2.72986 10.002 2.00195 10.567 2.00195 11.4045V18.5937C2.00195 19.4348 2.73082 19.9962 3.4693 19.9962H6.36194C6.40827 20.0363 6.46032 20.0714 6.51765 20.1001C6.91582 20.2996 7.14595 20.4147 7.54449 20.6135C8.0476 20.8644 8.60229 20.9937 9.1641 20.9915C9.45509 20.9904 13.2064 20.9909 15.8694 20.9913C17.2692 20.9915 18.3683 20.9917 18.5061 20.9915C19.6928 20.9902 20.7138 20.0871 20.8593 18.9091C20.898 18.5954 21.5816 14.1 21.8397 12.4025L21.8404 12.3983L21.8405 12.3973L21.9363 11.7669C21.985 11.4425 21.9774 11.1371 21.8743 10.7689C21.6907 10.1127 21.2347 9.5656 20.6224 9.26666C20.2789 9.09891 19.9799 9.03639 19.6521 9.02575C19.5204 9.02148 17.8527 9.0206 16.2499 9.02053C15.4414 9.02049 14.6402 9.02069 14.0411 9.0209L13.7953 9.021V5.62627C13.7953 5.581 13.7912 5.53583 13.7831 5.49131C13.7706 5.42333 13.7675 5.39594 13.7634 5.35938C13.7596 5.32599 13.7549 5.28495 13.7415 5.19833C13.72 5.05907 13.6845 4.9008 13.604 4.71459C13.467 4.3976 13.3252 4.19366 13.0756 3.95493C12.3347 3.24626 11.1649 3.10596 10.2771 3.59708C9.92912 3.78959 9.63692 4.06895 9.42898 4.40793C9.36121 4.5184 8.45993 5.95905 7.57094 7.37949ZM12.0387 5.03889C11.7791 4.79052 11.325 4.73161 11.0032 4.90962C10.8819 4.97672 10.7801 5.07411 10.7076 5.19227C10.6351 5.31037 9.7274 6.76129 8.84244 8.17528L7.61914 10.1295V10.7286C7.61938 10.7364 7.6195 10.7442 7.6195 10.752V18.9743C7.805 19.0671 7.98045 19.1547 8.21397 19.2712C8.5071 19.4174 8.83048 19.4928 9.15829 19.4915C9.45168 19.4904 13.2392 19.4909 15.9052 19.4913L15.9386 19.4913C17.3065 19.4915 18.3718 19.4917 18.5045 19.4915C18.9347 19.491 19.3179 19.1519 19.3706 18.7252C19.4127 18.3845 20.1245 13.7038 20.3707 12.0851L20.4529 11.5443C20.4728 11.4114 20.4712 11.3209 20.4299 11.1732C20.3616 10.9294 20.1918 10.7256 19.9643 10.6146C19.8265 10.5473 19.7377 10.5293 19.6034 10.525L19.58 10.5246L19.5109 10.5241C19.4529 10.5237 19.3738 10.5233 19.2762 10.523C19.0812 10.5224 18.8147 10.5219 18.5009 10.5216C17.8734 10.5208 17.0582 10.5206 16.2499 10.5205C15.4416 10.5205 14.6406 10.5207 14.0416 10.5209L13.0458 10.5213C12.8468 10.5214 12.6559 10.4425 12.5151 10.3018C12.3744 10.1611 12.2953 9.97027 12.2953 9.77129V5.68971C12.2873 5.63969 12.2813 5.59486 12.2763 5.55638L12.2707 5.51273C12.2663 5.4777 12.2632 5.45379 12.2592 5.42801C12.2513 5.37674 12.2439 5.34852 12.2271 5.30973C12.1697 5.17673 12.1434 5.13902 12.0387 5.03889ZM6.11914 11.502V18.4962H3.50195V11.502H6.11914Z"
    />
  </g>
</svg>
